<mxfile host="Electron" modified="2024-12-24T10:47:46.177Z" agent="Mozilla/5.0 (Windows NT 10.0; Win64; x64) AppleWebKit/537.36 (KHTML, like Gecko) draw.io/24.5.3 Chrome/124.0.6367.207 Electron/30.0.6 Safari/537.36" etag="zYV2aY7pG6lsF7roeUQ5" version="24.5.3" type="device">
  <diagram name="Page-1" id="PO1aoa9SAb-RiZ3VghdE">
    <mxGraphModel dx="1195" dy="703" grid="1" gridSize="10" guides="1" tooltips="1" connect="1" arrows="1" fold="1" page="1" pageScale="1" pageWidth="827" pageHeight="1169" math="0" shadow="0">
      <root>
        <mxCell id="0" />
        <mxCell id="1" parent="0" />
        <mxCell id="fEt0VjzS5DX4AmlWIPUy-28" style="edgeStyle=orthogonalEdgeStyle;rounded=0;orthogonalLoop=1;jettySize=auto;html=1;exitX=0.5;exitY=0;exitDx=0;exitDy=0;entryX=0.5;entryY=1;entryDx=0;entryDy=0;fillColor=#dae8fc;strokeColor=#6c8ebf;" edge="1" parent="1" source="fEt0VjzS5DX4AmlWIPUy-2" target="fEt0VjzS5DX4AmlWIPUy-20">
          <mxGeometry relative="1" as="geometry">
            <Array as="points">
              <mxPoint x="660" y="610" />
            </Array>
          </mxGeometry>
        </mxCell>
        <mxCell id="fEt0VjzS5DX4AmlWIPUy-31" value="USB&lt;div&gt;BACKPLANE&lt;/div&gt;" style="edgeLabel;html=1;align=center;verticalAlign=middle;resizable=0;points=[];" vertex="1" connectable="0" parent="fEt0VjzS5DX4AmlWIPUy-28">
          <mxGeometry x="0.8598" relative="1" as="geometry">
            <mxPoint y="23" as="offset" />
          </mxGeometry>
        </mxCell>
        <mxCell id="fEt0VjzS5DX4AmlWIPUy-48" style="edgeStyle=orthogonalEdgeStyle;rounded=0;orthogonalLoop=1;jettySize=auto;html=1;exitX=0.5;exitY=0;exitDx=0;exitDy=0;entryX=0.5;entryY=1;entryDx=0;entryDy=0;fillColor=#fad9d5;strokeColor=#ae4132;" edge="1" parent="1" source="fEt0VjzS5DX4AmlWIPUy-2" target="fEt0VjzS5DX4AmlWIPUy-42">
          <mxGeometry relative="1" as="geometry">
            <Array as="points">
              <mxPoint x="465" y="610" />
            </Array>
          </mxGeometry>
        </mxCell>
        <mxCell id="fEt0VjzS5DX4AmlWIPUy-53" value="12vin" style="edgeLabel;html=1;align=center;verticalAlign=middle;resizable=0;points=[];" vertex="1" connectable="0" parent="fEt0VjzS5DX4AmlWIPUy-48">
          <mxGeometry x="0.3926" y="-1" relative="1" as="geometry">
            <mxPoint x="-1" y="8" as="offset" />
          </mxGeometry>
        </mxCell>
        <mxCell id="fEt0VjzS5DX4AmlWIPUy-2" value="&lt;b&gt;DIN 41612&lt;/b&gt;" style="rounded=0;whiteSpace=wrap;html=1;" vertex="1" parent="1">
          <mxGeometry x="160" y="610" width="600" height="50" as="geometry" />
        </mxCell>
        <mxCell id="fEt0VjzS5DX4AmlWIPUy-50" style="edgeStyle=orthogonalEdgeStyle;rounded=0;orthogonalLoop=1;jettySize=auto;html=1;exitX=1;exitY=0.5;exitDx=0;exitDy=0;fillColor=#fad9d5;strokeColor=#ae4132;" edge="1" parent="1" source="fEt0VjzS5DX4AmlWIPUy-3" target="fEt0VjzS5DX4AmlWIPUy-8">
          <mxGeometry relative="1" as="geometry">
            <Array as="points">
              <mxPoint x="520" y="350" />
              <mxPoint x="660" y="350" />
            </Array>
          </mxGeometry>
        </mxCell>
        <mxCell id="fEt0VjzS5DX4AmlWIPUy-58" style="edgeStyle=orthogonalEdgeStyle;rounded=0;orthogonalLoop=1;jettySize=auto;html=1;exitX=1;exitY=0.5;exitDx=0;exitDy=0;entryX=0;entryY=0.5;entryDx=0;entryDy=0;fillColor=#fad9d5;strokeColor=#ae4132;" edge="1" parent="1" source="fEt0VjzS5DX4AmlWIPUy-3" target="fEt0VjzS5DX4AmlWIPUy-12">
          <mxGeometry relative="1" as="geometry">
            <Array as="points">
              <mxPoint x="520" y="400" />
            </Array>
          </mxGeometry>
        </mxCell>
        <mxCell id="fEt0VjzS5DX4AmlWIPUy-3" value="POWER SUPPLY" style="rounded=0;whiteSpace=wrap;html=1;fillColor=#fad9d5;strokeColor=#ae4132;" vertex="1" parent="1">
          <mxGeometry x="410" y="340" width="110" height="160" as="geometry" />
        </mxCell>
        <mxCell id="fEt0VjzS5DX4AmlWIPUy-4" value="STM32 F405RE F446RE" style="rounded=0;whiteSpace=wrap;html=1;fillColor=#fad7ac;strokeColor=#b46504;" vertex="1" parent="1">
          <mxGeometry x="540" y="210" width="170" height="110" as="geometry" />
        </mxCell>
        <mxCell id="fEt0VjzS5DX4AmlWIPUy-21" style="edgeStyle=orthogonalEdgeStyle;rounded=0;orthogonalLoop=1;jettySize=auto;html=1;exitX=0.75;exitY=0;exitDx=0;exitDy=0;entryX=0.75;entryY=1;entryDx=0;entryDy=0;fillColor=#b0e3e6;strokeColor=#0e8088;" edge="1" parent="1" source="fEt0VjzS5DX4AmlWIPUy-8" target="fEt0VjzS5DX4AmlWIPUy-4">
          <mxGeometry relative="1" as="geometry" />
        </mxCell>
        <mxCell id="fEt0VjzS5DX4AmlWIPUy-22" value="SWD" style="edgeLabel;html=1;align=center;verticalAlign=middle;resizable=0;points=[];" vertex="1" connectable="0" parent="fEt0VjzS5DX4AmlWIPUy-21">
          <mxGeometry x="-0.3638" y="-1" relative="1" as="geometry">
            <mxPoint x="-1" y="8" as="offset" />
          </mxGeometry>
        </mxCell>
        <mxCell id="fEt0VjzS5DX4AmlWIPUy-41" style="edgeStyle=orthogonalEdgeStyle;rounded=0;orthogonalLoop=1;jettySize=auto;html=1;exitX=0.25;exitY=1;exitDx=0;exitDy=0;entryX=0.5;entryY=0;entryDx=0;entryDy=0;fillColor=#e1d5e7;strokeColor=#9673a6;" edge="1" parent="1" source="fEt0VjzS5DX4AmlWIPUy-8" target="fEt0VjzS5DX4AmlWIPUy-39">
          <mxGeometry relative="1" as="geometry">
            <Array as="points">
              <mxPoint x="635" y="440" />
              <mxPoint x="605" y="440" />
            </Array>
          </mxGeometry>
        </mxCell>
        <mxCell id="fEt0VjzS5DX4AmlWIPUy-8" value="STLINK" style="rounded=0;whiteSpace=wrap;html=1;fillColor=#dae8fc;strokeColor=#6c8ebf;" vertex="1" parent="1">
          <mxGeometry x="610" y="370" width="100" height="60" as="geometry" />
        </mxCell>
        <mxCell id="fEt0VjzS5DX4AmlWIPUy-12" value="CAN&lt;div&gt;Transiver&lt;/div&gt;" style="rounded=0;whiteSpace=wrap;html=1;fillColor=#d5e8d4;strokeColor=#82b366;" vertex="1" parent="1">
          <mxGeometry x="540" y="370" width="60" height="60" as="geometry" />
        </mxCell>
        <mxCell id="fEt0VjzS5DX4AmlWIPUy-24" style="edgeStyle=orthogonalEdgeStyle;rounded=0;orthogonalLoop=1;jettySize=auto;html=1;exitX=1;exitY=0.5;exitDx=0;exitDy=0;entryX=1;entryY=0.5;entryDx=0;entryDy=0;fillColor=#f8cecc;strokeColor=#b85450;" edge="1" parent="1" source="fEt0VjzS5DX4AmlWIPUy-19" target="fEt0VjzS5DX4AmlWIPUy-20">
          <mxGeometry relative="1" as="geometry">
            <Array as="points">
              <mxPoint x="710" y="120" />
              <mxPoint x="760" y="120" />
              <mxPoint x="760" y="498" />
            </Array>
          </mxGeometry>
        </mxCell>
        <mxCell id="fEt0VjzS5DX4AmlWIPUy-25" value="VBUS" style="edgeLabel;html=1;align=center;verticalAlign=middle;resizable=0;points=[];" vertex="1" connectable="0" parent="fEt0VjzS5DX4AmlWIPUy-24">
          <mxGeometry x="-0.1283" relative="1" as="geometry">
            <mxPoint as="offset" />
          </mxGeometry>
        </mxCell>
        <mxCell id="fEt0VjzS5DX4AmlWIPUy-45" style="edgeStyle=orthogonalEdgeStyle;rounded=0;orthogonalLoop=1;jettySize=auto;html=1;exitX=0.5;exitY=1;exitDx=0;exitDy=0;entryX=0.5;entryY=0;entryDx=0;entryDy=0;fillColor=#fad9d5;strokeColor=#ae4132;" edge="1" parent="1" source="fEt0VjzS5DX4AmlWIPUy-19" target="fEt0VjzS5DX4AmlWIPUy-43">
          <mxGeometry relative="1" as="geometry">
            <Array as="points">
              <mxPoint x="625" y="190" />
              <mxPoint x="465" y="190" />
            </Array>
          </mxGeometry>
        </mxCell>
        <mxCell id="fEt0VjzS5DX4AmlWIPUy-46" value="5vin" style="edgeLabel;html=1;align=center;verticalAlign=middle;resizable=0;points=[];" vertex="1" connectable="0" parent="fEt0VjzS5DX4AmlWIPUy-45">
          <mxGeometry x="-0.2489" y="-3" relative="1" as="geometry">
            <mxPoint as="offset" />
          </mxGeometry>
        </mxCell>
        <mxCell id="fEt0VjzS5DX4AmlWIPUy-19" value="F-Panel USB" style="rounded=0;whiteSpace=wrap;html=1;fillColor=#dae8fc;strokeColor=#6c8ebf;" vertex="1" parent="1">
          <mxGeometry x="540" y="110" width="170" height="60" as="geometry" />
        </mxCell>
        <mxCell id="fEt0VjzS5DX4AmlWIPUy-23" style="edgeStyle=orthogonalEdgeStyle;rounded=0;orthogonalLoop=1;jettySize=auto;html=1;exitX=0.5;exitY=0;exitDx=0;exitDy=0;entryX=0.5;entryY=1;entryDx=0;entryDy=0;fillColor=#dae8fc;strokeColor=#6c8ebf;" edge="1" parent="1" source="fEt0VjzS5DX4AmlWIPUy-20" target="fEt0VjzS5DX4AmlWIPUy-8">
          <mxGeometry relative="1" as="geometry" />
        </mxCell>
        <mxCell id="fEt0VjzS5DX4AmlWIPUy-20" value="USB MUX" style="rounded=0;whiteSpace=wrap;html=1;fillColor=#dae8fc;strokeColor=#6c8ebf;" vertex="1" parent="1">
          <mxGeometry x="635" y="470" width="50" height="55" as="geometry" />
        </mxCell>
        <mxCell id="fEt0VjzS5DX4AmlWIPUy-26" value="SW" style="text;html=1;align=center;verticalAlign=middle;whiteSpace=wrap;rounded=0;" vertex="1" parent="1">
          <mxGeometry x="720" y="520" width="30" height="20" as="geometry" />
        </mxCell>
        <mxCell id="fEt0VjzS5DX4AmlWIPUy-27" value="" style="endArrow=classic;html=1;rounded=0;exitX=0;exitY=0.5;exitDx=0;exitDy=0;" edge="1" parent="1" source="fEt0VjzS5DX4AmlWIPUy-26">
          <mxGeometry width="50" height="50" relative="1" as="geometry">
            <mxPoint x="730" y="510" as="sourcePoint" />
            <mxPoint x="690" y="510" as="targetPoint" />
          </mxGeometry>
        </mxCell>
        <mxCell id="fEt0VjzS5DX4AmlWIPUy-29" style="edgeStyle=orthogonalEdgeStyle;rounded=0;orthogonalLoop=1;jettySize=auto;html=1;entryX=1;entryY=0.177;entryDx=0;entryDy=0;entryPerimeter=0;fillColor=#dae8fc;strokeColor=#6c8ebf;" edge="1" parent="1" target="fEt0VjzS5DX4AmlWIPUy-20">
          <mxGeometry relative="1" as="geometry">
            <mxPoint x="710" y="150" as="sourcePoint" />
            <Array as="points">
              <mxPoint x="710" y="170" />
              <mxPoint x="710" y="150" />
              <mxPoint x="730" y="150" />
              <mxPoint x="730" y="480" />
            </Array>
          </mxGeometry>
        </mxCell>
        <mxCell id="fEt0VjzS5DX4AmlWIPUy-30" value="USB&lt;div&gt;F-PANEL&lt;/div&gt;" style="edgeLabel;html=1;align=center;verticalAlign=middle;resizable=0;points=[];" vertex="1" connectable="0" parent="fEt0VjzS5DX4AmlWIPUy-29">
          <mxGeometry x="0.2551" y="-2" relative="1" as="geometry">
            <mxPoint y="-173" as="offset" />
          </mxGeometry>
        </mxCell>
        <mxCell id="fEt0VjzS5DX4AmlWIPUy-34" value="" style="endArrow=classic;startArrow=classic;html=1;rounded=0;exitX=0.5;exitY=0;exitDx=0;exitDy=0;fillColor=#d5e8d4;strokeColor=#82b366;" edge="1" parent="1" source="fEt0VjzS5DX4AmlWIPUy-12">
          <mxGeometry width="50" height="50" relative="1" as="geometry">
            <mxPoint x="560" y="370" as="sourcePoint" />
            <mxPoint x="610" y="320" as="targetPoint" />
            <Array as="points">
              <mxPoint x="570" y="340" />
              <mxPoint x="610" y="340" />
            </Array>
          </mxGeometry>
        </mxCell>
        <mxCell id="fEt0VjzS5DX4AmlWIPUy-35" value="" style="endArrow=classic;startArrow=classic;html=1;rounded=0;entryX=0.5;entryY=1;entryDx=0;entryDy=0;fillColor=#d5e8d4;strokeColor=#82b366;" edge="1" parent="1" target="fEt0VjzS5DX4AmlWIPUy-12">
          <mxGeometry width="50" height="50" relative="1" as="geometry">
            <mxPoint x="570" y="609" as="sourcePoint" />
            <mxPoint x="570" y="440" as="targetPoint" />
          </mxGeometry>
        </mxCell>
        <mxCell id="fEt0VjzS5DX4AmlWIPUy-36" value="LED + BUTTONS" style="rounded=0;whiteSpace=wrap;html=1;fillColor=#e1d5e7;strokeColor=#9673a6;" vertex="1" parent="1">
          <mxGeometry x="190" y="110" width="335" height="60" as="geometry" />
        </mxCell>
        <mxCell id="fEt0VjzS5DX4AmlWIPUy-39" value="STLINK LED" style="rounded=0;whiteSpace=wrap;html=1;fillColor=#e1d5e7;strokeColor=#9673a6;" vertex="1" parent="1">
          <mxGeometry x="580" y="460" width="50" height="30" as="geometry" />
        </mxCell>
        <mxCell id="fEt0VjzS5DX4AmlWIPUy-49" style="edgeStyle=orthogonalEdgeStyle;rounded=0;orthogonalLoop=1;jettySize=auto;html=1;exitX=0.5;exitY=0;exitDx=0;exitDy=0;entryX=0.5;entryY=1;entryDx=0;entryDy=0;fillColor=#fad9d5;strokeColor=#ae4132;" edge="1" parent="1" source="fEt0VjzS5DX4AmlWIPUy-42" target="fEt0VjzS5DX4AmlWIPUy-3">
          <mxGeometry relative="1" as="geometry" />
        </mxCell>
        <mxCell id="fEt0VjzS5DX4AmlWIPUy-42" value="PROTEC CIRCUIT" style="rounded=0;whiteSpace=wrap;html=1;fillColor=#fad9d5;strokeColor=#ae4132;" vertex="1" parent="1">
          <mxGeometry x="410" y="520" width="110" height="47.5" as="geometry" />
        </mxCell>
        <mxCell id="fEt0VjzS5DX4AmlWIPUy-47" style="edgeStyle=orthogonalEdgeStyle;rounded=0;orthogonalLoop=1;jettySize=auto;html=1;exitX=0.5;exitY=1;exitDx=0;exitDy=0;entryX=0.5;entryY=0;entryDx=0;entryDy=0;fillColor=#fad9d5;strokeColor=#ae4132;" edge="1" parent="1" source="fEt0VjzS5DX4AmlWIPUy-43" target="fEt0VjzS5DX4AmlWIPUy-3">
          <mxGeometry relative="1" as="geometry" />
        </mxCell>
        <mxCell id="fEt0VjzS5DX4AmlWIPUy-43" value="PROTEC CIRCUIT" style="rounded=0;whiteSpace=wrap;html=1;fillColor=#fad9d5;strokeColor=#ae4132;" vertex="1" parent="1">
          <mxGeometry x="410" y="280" width="110" height="47.5" as="geometry" />
        </mxCell>
        <mxCell id="fEt0VjzS5DX4AmlWIPUy-52" style="edgeStyle=orthogonalEdgeStyle;rounded=0;orthogonalLoop=1;jettySize=auto;html=1;exitX=1;exitY=0.25;exitDx=0;exitDy=0;entryX=0.108;entryY=0.999;entryDx=0;entryDy=0;entryPerimeter=0;fillColor=#fad9d5;strokeColor=#ae4132;" edge="1" parent="1" source="fEt0VjzS5DX4AmlWIPUy-3" target="fEt0VjzS5DX4AmlWIPUy-4">
          <mxGeometry relative="1" as="geometry">
            <Array as="points">
              <mxPoint x="520" y="350" />
              <mxPoint x="558" y="350" />
            </Array>
          </mxGeometry>
        </mxCell>
        <mxCell id="fEt0VjzS5DX4AmlWIPUy-54" value="Prototype AREA" style="rounded=0;whiteSpace=wrap;html=1;fillColor=#fad7ac;strokeColor=#b46504;" vertex="1" parent="1">
          <mxGeometry x="190" y="200" width="170" height="370" as="geometry" />
        </mxCell>
        <mxCell id="fEt0VjzS5DX4AmlWIPUy-55" style="edgeStyle=orthogonalEdgeStyle;rounded=0;orthogonalLoop=1;jettySize=auto;html=1;exitX=0;exitY=0.25;exitDx=0;exitDy=0;entryX=1.005;entryY=0.1;entryDx=0;entryDy=0;entryPerimeter=0;fillColor=#fad7ac;strokeColor=#b46504;" edge="1" parent="1" source="fEt0VjzS5DX4AmlWIPUy-4" target="fEt0VjzS5DX4AmlWIPUy-54">
          <mxGeometry relative="1" as="geometry" />
        </mxCell>
        <mxCell id="fEt0VjzS5DX4AmlWIPUy-56" value="GPIO" style="edgeLabel;html=1;align=center;verticalAlign=middle;resizable=0;points=[];" vertex="1" connectable="0" parent="fEt0VjzS5DX4AmlWIPUy-55">
          <mxGeometry x="0.2858" y="2" relative="1" as="geometry">
            <mxPoint as="offset" />
          </mxGeometry>
        </mxCell>
        <mxCell id="fEt0VjzS5DX4AmlWIPUy-57" style="edgeStyle=orthogonalEdgeStyle;rounded=0;orthogonalLoop=1;jettySize=auto;html=1;exitX=0;exitY=0.5;exitDx=0;exitDy=0;entryX=1.005;entryY=0.595;entryDx=0;entryDy=0;entryPerimeter=0;fillColor=#fad9d5;strokeColor=#ae4132;" edge="1" parent="1" source="fEt0VjzS5DX4AmlWIPUy-3" target="fEt0VjzS5DX4AmlWIPUy-54">
          <mxGeometry relative="1" as="geometry" />
        </mxCell>
      </root>
    </mxGraphModel>
  </diagram>
</mxfile>
